<svg width="28" height="29" viewBox="0 0 28 29" fill="none" xmlns="http://www.w3.org/2000/svg">
<path d="M13.9882 7.81251C10.0183 7.81251 6.81621 11.0188 6.81621 14.9938C6.81621 18.9688 10.0183 22.175 13.9882 22.175C17.9581 22.175 21.1602 18.9688 21.1602 14.9938C21.1602 11.0188 17.9581 7.81251 13.9882 7.81251ZM13.9882 19.6625C11.4228 19.6625 9.32548 17.5688 9.32548 14.9938C9.32548 12.4188 11.4165 10.325 13.9882 10.325C16.5599 10.325 18.651 12.4188 18.651 14.9938C18.651 17.5688 16.5537 19.6625 13.9882 19.6625ZM23.1264 7.51876C23.1264 8.45001 22.3774 9.19376 21.4536 9.19376C20.5235 9.19376 19.7808 8.44376 19.7808 7.51876C19.7808 6.59376 20.5298 5.84376 21.4536 5.84376C22.3774 5.84376 23.1264 6.59376 23.1264 7.51876ZM27.8766 9.21876C27.7705 6.97501 27.2586 4.98751 25.617 3.35001C23.9816 1.71251 21.9966 1.20001 19.7558 1.08751C17.4463 0.956262 10.5239 0.956262 8.21441 1.08751C5.97979 1.19376 3.99485 1.70626 2.35321 3.34376C0.71158 4.98126 0.205982 6.96876 0.0936264 9.21251C-0.0374547 11.525 -0.0374547 18.4563 0.0936264 20.7688C0.19974 23.0125 0.71158 25 2.35321 26.6375C3.99485 28.275 5.97355 28.7875 8.21441 28.9C10.5239 29.0313 17.4463 29.0313 19.7558 28.9C21.9966 28.7938 23.9816 28.2813 25.617 26.6375C27.2524 25 27.7642 23.0125 27.8766 20.7688C28.0077 18.4563 28.0077 11.5313 27.8766 9.21876ZM24.8929 23.25C24.406 24.475 23.4635 25.4188 22.2338 25.9125C20.3925 26.6438 16.0231 26.475 13.9882 26.475C11.9533 26.475 7.57773 26.6375 5.7426 25.9125C4.51917 25.425 3.57664 24.4813 3.08352 23.25C2.35321 21.4063 2.52175 17.0313 2.52175 14.9938C2.52175 12.9563 2.35946 8.57501 3.08352 6.73751C3.5704 5.51251 4.51293 4.56876 5.7426 4.07501C7.58397 3.34376 11.9533 3.51251 13.9882 3.51251C16.0231 3.51251 20.3987 3.35001 22.2338 4.07501C23.4573 4.56251 24.3998 5.50626 24.8929 6.73751C25.6232 8.58126 25.4547 12.9563 25.4547 14.9938C25.4547 17.0313 25.6232 21.4125 24.8929 23.25Z" fill="#CE0CFF"/>
</svg>
