<svg width="32" height="26" viewBox="0 0 32 26" fill="none" xmlns="http://www.w3.org/2000/svg">
<path d="M28.7106 6.48223C28.7309 6.76648 28.7309 7.05079 28.7309 7.33504C28.7309 16.005 22.132 25.9949 10.0711 25.9949C6.35531 25.9949 2.90356 24.9187 0 23.0508C0.527937 23.1117 1.0355 23.132 1.58375 23.132C4.64969 23.132 7.47206 22.0965 9.72587 20.33C6.84262 20.269 4.42637 18.3807 3.59387 15.7817C4 15.8426 4.40606 15.8832 4.8325 15.8832C5.42131 15.8832 6.01019 15.802 6.55837 15.6599C3.55331 15.0507 1.29944 12.4112 1.29944 9.22335V9.14217C2.1725 9.62948 3.18781 9.93404 4.26387 9.9746C2.49737 8.79692 1.34006 6.78679 1.34006 4.51267C1.34006 3.29442 1.66487 2.17767 2.23344 1.20304C5.46187 5.18273 10.3147 7.78167 15.7562 8.06598C15.6547 7.57867 15.5938 7.0711 15.5938 6.56348C15.5938 2.94923 18.5177 0.00510406 22.1522 0.00510406C24.0405 0.00510406 25.7461 0.796979 26.9441 2.07617C28.4262 1.79192 29.8476 1.24367 31.1065 0.492417C30.6191 2.01529 29.5836 3.29448 28.2232 4.1066C29.5431 3.96454 30.8222 3.59898 31.9999 3.09142C31.1066 4.39085 29.9898 5.54817 28.7106 6.48223Z" fill="#14AED0"/>
</svg>
